<?xml version="1.0" encoding="iso-8859-1"?>
<!-- Uploaded to: SVG Repo, www.svgrepo.com, Generator: SVG Repo Mixer Tools -->
<svg fill="#4B4841" height="800px" width="800px" version="1.1" id="Layer_1" xmlns="http://www.w3.org/2000/svg" xmlns:xlink="http://www.w3.org/1999/xlink" 
	 viewBox="0 0 512 512" xml:space="preserve">
<g>
	<g>
		<path d="M495.295,372.932c-9.225,0-16.705,7.479-16.705,16.705c0,9.211-7.494,16.705-16.705,16.705h-27.563v-34.067
			c16.709-2.157,32.172-9.728,44.305-21.89c14.57-14.607,22.565-33.995,22.512-54.595c-0.019-7.535,0.074-7.721-0.335-9.729
			c-5.25-81.902-73.639-146.994-156.793-146.994h-9.918v-33.409h150.343c9.225,0,16.705-7.479,16.705-16.705
			s-7.479-16.705-16.705-16.705H150.343c-9.225,0-16.705,7.479-16.705,16.705s7.479,16.705,16.705,16.705h150.343v33.409H33.409
			v-16.705c0-9.225-7.479-16.705-16.705-16.705S0,113.137,0,122.363c0,10.979,0,90.192,0,100.228
			c0,9.225,7.479,16.705,16.705,16.705s16.705-7.479,16.705-16.705v-12.014l154.394,38.598c7.45,1.862,12.653,8.527,12.653,16.206
			c0,44.895,27.654,83.447,66.819,99.533v41.428h-50.114c-9.225,0-16.705,7.479-16.705,16.705s7.479,16.705,16.705,16.705h244.724
			c27.633,0,50.114-22.481,50.114-50.114C512,380.412,504.521,372.932,495.295,372.932z M334.095,172.476h9.918
			c60.127,0,110.449,43.224,121.469,100.228H350.799c-9.211,0-16.705-7.494-16.705-16.705V172.476z M400.914,406.342H300.685
			v-33.664c2.421,0.164,4.862,0.255,7.323,0.255h92.905V406.342z M308.008,339.523c-40.882,0-74.142-33.26-74.142-74.143
			c0-23.038-15.61-43.03-37.96-48.619L33.409,176.137v-3.662h267.276v83.524c0,27.633,22.481,50.114,50.114,50.114h115.745
			c-1.841,7.754-5.788,14.879-11.57,20.677c-8.19,8.211-19.047,12.732-30.57,12.732H308.008z"/>
	</g>
</g>
</svg>